# xmcd
#
# Track frame offsets:
#	150
#	15488
#	30512
#	46063
#	60670
#	74894
#	96105
#	114158
#	132882
#	147942
#	162521
#
# Disc length: 2334 seconds
#
# Revision: 1
# Processed by: cddbd v1.4PL0 Copyright (c) Steve Scherf et al.
# Submitted via: audiograbber 1.80
#
DISCID=91091c0b
DTITLE=Ten Cent Shooters - Sweet To Mama
DYEAR=1900
DGENRE=
TTITLE0=Sweet to Mama
TTITLE1=Little Laura
TTITLE2=No No Blues
TTITLE3=Kentucky Blues
TTITLE4=You Gonna Quit Me
TTITLE5=Have A Good Time
TTITLE6=Casey Jones
TTITLE7=Bootlegger Blues
TTITLE8=Sloppy Drunk
TTITLE9=Big Road Blues
TTITLE10=Papa Wants A Cookie
EXTD=
EXTT0=
EXTT1=
EXTT2=
EXTT3=
EXTT4=
EXTT5=
EXTT6=
EXTT7=
EXTT8=
EXTT9=
EXTT10=
PLAYORDER=
